<svg width="18" height="18" viewBox="0 0 18 18" fill="none" xmlns="http://www.w3.org/2000/svg">
<path d="M4.64374 12.6125C5.24582 12.1521 5.91874 11.7891 6.66249 11.5234C7.40624 11.2578 8.18541 11.125 8.99999 11.125C9.81457 11.125 10.5937 11.2578 11.3375 11.5234C12.0812 11.7891 12.7542 12.1521 13.3562 12.6125C13.7694 12.1285 14.0911 11.5795 14.3213 10.9656C14.5516 10.3517 14.6667 9.69653 14.6667 9C14.6667 7.42987 14.1147 6.09289 13.0109 4.98907C11.9071 3.88525 10.5701 3.33334 8.99999 3.33334C7.42985 3.33334 6.09287 3.88525 4.98905 4.98907C3.88523 6.09289 3.33332 7.42987 3.33332 9C3.33332 9.69653 3.44843 10.3517 3.67864 10.9656C3.90884 11.5795 4.23055 12.1285 4.64374 12.6125ZM8.99999 9.70834C8.30346 9.70834 7.71614 9.46928 7.23801 8.99115C6.75989 8.51303 6.52082 7.9257 6.52082 7.22917C6.52082 6.53264 6.75989 5.94532 7.23801 5.46719C7.71614 4.98907 8.30346 4.75001 8.99999 4.75001C9.69652 4.75001 10.2838 4.98907 10.762 5.46719C11.2401 5.94532 11.4792 6.53264 11.4792 7.22917C11.4792 7.9257 11.2401 8.51303 10.762 8.99115C10.2838 9.46928 9.69652 9.70834 8.99999 9.70834ZM8.99999 16.0833C8.02013 16.0833 7.0993 15.8974 6.23749 15.5255C5.37568 15.1537 4.62603 14.649 3.98853 14.0115C3.35103 13.374 2.84634 12.6243 2.47447 11.7625C2.10259 10.9007 1.91666 9.97987 1.91666 9C1.91666 8.02014 2.10259 7.09931 2.47447 6.2375C2.84634 5.3757 3.35103 4.62605 3.98853 3.98855C4.62603 3.35105 5.37568 2.84636 6.23749 2.47448C7.0993 2.10261 8.02013 1.91667 8.99999 1.91667C9.97985 1.91667 10.9007 2.10261 11.7625 2.47448C12.6243 2.84636 13.3739 3.35105 14.0114 3.98855C14.6489 4.62605 15.1536 5.3757 15.5255 6.2375C15.8974 7.09931 16.0833 8.02014 16.0833 9C16.0833 9.97987 15.8974 10.9007 15.5255 11.7625C15.1536 12.6243 14.6489 13.374 14.0114 14.0115C13.3739 14.649 12.6243 15.1537 11.7625 15.5255C10.9007 15.8974 9.97985 16.0833 8.99999 16.0833Z" fill="white"/>
</svg>
