<svg width="27" height="26" viewBox="0 0 27 26" fill="none" xmlns="http://www.w3.org/2000/svg">
<path d="M6.83752 18.525C7.75835 17.8208 8.78752 17.2656 9.92502 16.8594C11.0625 16.4531 12.2542 16.25 13.5 16.25C14.7459 16.25 15.9375 16.4531 17.075 16.8594C18.2125 17.2656 19.2417 17.8208 20.1625 18.525C20.7945 17.7847 21.2865 16.9451 21.6386 16.0063C21.9906 15.0674 22.1667 14.0653 22.1667 13C22.1667 10.5986 21.3226 8.55382 19.6344 6.86563C17.9462 5.17744 15.9014 4.33334 13.5 4.33334C11.0986 4.33334 9.05384 5.17744 7.36565 6.86563C5.67745 8.55382 4.83335 10.5986 4.83335 13C4.83335 14.0653 5.0094 15.0674 5.36148 16.0063C5.71356 16.9451 6.20558 17.7847 6.83752 18.525ZM13.5 14.0833C12.4347 14.0833 11.5365 13.7177 10.8052 12.9865C10.074 12.2552 9.70835 11.3569 9.70835 10.2917C9.70835 9.22639 10.074 8.32813 10.8052 7.59688C11.5365 6.86563 12.4347 6.50001 13.5 6.50001C14.5653 6.50001 15.4636 6.86563 16.1948 7.59688C16.9261 8.32813 17.2917 9.22639 17.2917 10.2917C17.2917 11.3569 16.9261 12.2552 16.1948 12.9865C15.4636 13.7177 14.5653 14.0833 13.5 14.0833ZM13.5 23.8333C12.0014 23.8333 10.5931 23.549 9.27502 22.9802C7.95696 22.4115 6.81044 21.6396 5.83544 20.6646C4.86044 19.6896 4.08856 18.5431 3.51981 17.225C2.95106 15.907 2.66669 14.4986 2.66669 13C2.66669 11.5014 2.95106 10.0931 3.51981 8.77501C4.08856 7.45695 4.86044 6.31042 5.83544 5.33542C6.81044 4.36042 7.95696 3.58855 9.27502 3.0198C10.5931 2.45105 12.0014 2.16667 13.5 2.16667C14.9986 2.16667 16.407 2.45105 17.725 3.0198C19.0431 3.58855 20.1896 4.36042 21.1646 5.33542C22.1396 6.31042 22.9115 7.45695 23.4802 8.77501C24.049 10.0931 24.3334 11.5014 24.3334 13C24.3334 14.4986 24.049 15.907 23.4802 17.225C22.9115 18.5431 22.1396 19.6896 21.1646 20.6646C20.1896 21.6396 19.0431 22.4115 17.725 22.9802C16.407 23.549 14.9986 23.8333 13.5 23.8333Z" fill="white"/>
</svg>
