<svg width="54" height="53" viewBox="0 0 54 53" fill="none" xmlns="http://www.w3.org/2000/svg">
<path d="M13.1625 37.55C15.075 36.1417 17.2125 35.0312 19.575 34.2187C21.9375 33.4062 24.4125 33 27 33C29.5875 33 32.0625 33.4062 34.425 34.2187C36.7875 35.0312 38.925 36.1417 40.8375 37.55C42.15 36.0694 43.1719 34.3903 43.9031 32.5125C44.6344 30.6347 45 28.6306 45 26.5C45 21.6972 43.2469 17.6076 39.7406 14.2312C36.2344 10.8549 31.9875 9.16666 27 9.16666C22.0125 9.16666 17.7656 10.8549 14.2594 14.2312C10.7531 17.6076 9 21.6972 9 26.5C9 28.6306 9.36562 30.6347 10.0969 32.5125C10.8281 34.3903 11.85 36.0694 13.1625 37.55ZM27 28.6667C24.7875 28.6667 22.9219 27.9354 21.4031 26.4729C19.8844 25.0104 19.125 23.2139 19.125 21.0833C19.125 18.9528 19.8844 17.1562 21.4031 15.6937C22.9219 14.2312 24.7875 13.5 27 13.5C29.2125 13.5 31.0781 14.2312 32.5969 15.6937C34.1156 17.1562 34.875 18.9528 34.875 21.0833C34.875 23.2139 34.1156 25.0104 32.5969 26.4729C31.0781 27.9354 29.2125 28.6667 27 28.6667ZM27 48.1667C23.8875 48.1667 20.9625 47.5979 18.225 46.4604C15.4875 45.3229 13.1062 43.7792 11.0812 41.8292C9.05625 39.8792 7.45313 37.5861 6.27188 34.95C5.09062 32.3139 4.5 29.4972 4.5 26.5C4.5 23.5028 5.09062 20.6861 6.27188 18.05C7.45313 15.4139 9.05625 13.1208 11.0812 11.1708C13.1062 9.22083 15.4875 7.67708 18.225 6.53958C20.9625 5.40208 23.8875 4.83333 27 4.83333C30.1125 4.83333 33.0375 5.40208 35.775 6.53958C38.5125 7.67708 40.8938 9.22083 42.9188 11.1708C44.9438 13.1208 46.5469 15.4139 47.7281 18.05C48.9094 20.6861 49.5 23.5028 49.5 26.5C49.5 29.4972 48.9094 32.3139 47.7281 34.95C46.5469 37.5861 44.9438 39.8792 42.9188 41.8292C40.8938 43.7792 38.5125 45.3229 35.775 46.4604C33.0375 47.5979 30.1125 48.1667 27 48.1667Z" fill="white"/>
</svg>
