<svg width="27" height="24" viewBox="0 0 27 24" fill="none" xmlns="http://www.w3.org/2000/svg">
<path d="M5.91667 3C5.32083 3 4.80625 3.19167 4.37292 3.575C3.95764 3.975 3.75 4.45 3.75 5V19C3.75 19.55 3.95764 20.0167 4.37292 20.4C4.80625 20.8 5.32083 21 5.91667 21H21.0833C21.6792 21 22.1847 20.8 22.6 20.4C23.0333 20.0167 23.25 19.55 23.25 19V5C23.25 4.45 23.0333 3.975 22.6 3.575C22.1847 3.19167 21.6792 3 21.0833 3H5.91667ZM5.91667 5H21.0833V8H17.8333C17.2917 7.36666 16.6417 6.875 15.8833 6.525C15.1431 6.175 14.3486 6 13.5 6C12.6514 6 11.8479 6.175 11.0896 6.525C10.3493 6.875 9.70833 7.36666 9.16667 8H5.91667V5ZM13.5 8C14.1861 8 14.809 8.18333 15.3688 8.55C15.9285 8.91667 16.3167 9.4 16.5333 10H21.0833V19H5.91667V10H10.4667C10.6833 9.4 11.0715 8.91667 11.6313 8.55C12.191 8.18333 12.8139 8 13.5 8ZM5.91667 5H9.16667C9.70833 5 10.3493 5 11.0896 5C11.8479 5 12.6514 5 13.5 5C14.3486 5 15.1431 5 15.8833 5C16.6417 5 17.2917 5 17.8333 5H21.0833H5.91667Z" fill="#DF9506"/>
</svg>
