<svg width="13" height="12" viewBox="0 0 13 12" fill="none" xmlns="http://www.w3.org/2000/svg">
<path d="M2.70833 1.5C2.41042 1.5 2.15313 1.59583 1.93646 1.7875C1.72882 1.9875 1.625 2.225 1.625 2.5V9.5C1.625 9.775 1.72882 10.0083 1.93646 10.2C2.15313 10.4 2.41042 10.5 2.70833 10.5H10.2917C10.5896 10.5 10.8424 10.4 11.05 10.2C11.2667 10.0083 11.375 9.775 11.375 9.5V2.5C11.375 2.225 11.2667 1.9875 11.05 1.7875C10.8424 1.59583 10.5896 1.5 10.2917 1.5H2.70833ZM2.70833 2.5H10.2917V4H8.66667C8.39583 3.68333 8.07083 3.4375 7.69167 3.2625C7.32153 3.0875 6.92431 3 6.5 3C6.07569 3 5.67396 3.0875 5.29479 3.2625C4.92465 3.4375 4.60417 3.68333 4.33333 4H2.70833V2.5ZM6.5 4C6.84306 4 7.15451 4.09167 7.43438 4.275C7.71424 4.45833 7.90833 4.7 8.01667 5H10.2917V9.5H2.70833V5H4.98333C5.09167 4.7 5.28576 4.45833 5.56563 4.275C5.84549 4.09167 6.15694 4 6.5 4ZM2.70833 2.5H4.33333C4.60417 2.5 4.92465 2.5 5.29479 2.5C5.67396 2.5 6.07569 2.5 6.5 2.5C6.92431 2.5 7.32153 2.5 7.69167 2.5C8.07083 2.5 8.39583 2.5 8.66667 2.5H10.2917H2.70833Z" fill="#DF9506"/>
</svg>
