<svg width="57" height="57" viewBox="0 0 57 57" fill="none" xmlns="http://www.w3.org/2000/svg">
<path d="M11.875 49.875C10.5688 49.875 9.44063 49.4198 8.49063 48.5094C7.58021 47.5594 7.125 46.4313 7.125 45.125V11.875C7.125 10.5688 7.58021 9.46042 8.49063 8.55C9.44063 7.6 10.5688 7.125 11.875 7.125H45.125C46.4313 7.125 47.5396 7.6 48.45 8.55C49.4 9.46042 49.875 10.5688 49.875 11.875V45.125C49.875 46.4313 49.4 47.5594 48.45 48.5094C47.5396 49.4198 46.4313 49.875 45.125 49.875H11.875ZM11.875 45.125H45.125V38H38C36.8125 39.5042 35.3875 40.6719 33.725 41.5031C32.1021 42.3344 30.3604 42.75 28.5 42.75C26.6396 42.75 24.8781 42.3344 23.2156 41.5031C21.5927 40.6719 20.1875 39.5042 19 38H11.875V45.125ZM28.5 38C30.0042 38 31.3698 37.5646 32.5969 36.6938C33.824 35.8229 34.675 34.675 35.15 33.25H45.125V11.875H11.875V33.25H21.85C22.325 34.675 23.176 35.8229 24.4031 36.6938C25.6302 37.5646 26.9958 38 28.5 38ZM11.875 45.125H19C20.1875 45.125 21.5927 45.125 23.2156 45.125C24.8781 45.125 26.6396 45.125 28.5 45.125C30.3604 45.125 32.1021 45.125 33.725 45.125C35.3875 45.125 36.8125 45.125 38 45.125H45.125H11.875Z" fill="#DF9506"/>
</svg>
